<svg width="32" height="32" viewBox="0 0 32 32" fill="none" xmlns="http://www.w3.org/2000/svg">
<path d="M11.3152 1.05467C11.5024 0.991601 11.6734 0.993904 11.8439 1.00864C12.5392 1.06803 13.1942 1.28257 13.8414 1.5192C15.4847 2.12047 17.0427 2.89667 18.5692 3.73642C19.5407 4.27092 20.4904 4.83973 21.3993 5.47207C21.876 5.80377 22.3456 6.14515 22.7451 6.5664C23.2364 7.08456 23.5805 7.69619 23.8794 8.3329C24.35 9.33562 24.6898 10.3846 25.0217 11.4368C25.3152 12.3673 25.6218 13.2938 25.9398 14.2164C26.0227 14.4572 26.1624 14.6807 26.2881 14.9056C26.5121 15.3059 26.8701 15.4189 27.3153 15.3577C27.6514 15.3114 27.9465 15.1977 28.1966 14.9666C28.524 14.6641 28.9237 14.6639 29.3358 14.7288C29.7476 14.7937 30.0829 14.9933 30.3755 15.2748C30.579 15.4709 30.7876 15.662 30.9999 15.8609C30.9999 15.8609 31.0001 15.8731 30.993 15.8793C30.7502 16.0851 30.5076 16.2913 30.2629 16.4951C29.9499 16.7556 29.5881 16.8956 29.1755 16.902C29.0499 16.9041 28.9239 16.9032 28.7988 16.8942C28.5803 16.8788 28.389 16.7989 28.2312 16.6461C27.9222 16.347 27.5496 16.2011 27.1162 16.1627C26.7745 16.1323 26.5305 16.2566 26.3421 16.5188C26.0999 16.8553 25.9417 17.2326 25.8194 17.6212C25.5507 18.4749 25.294 19.3324 25.0401 20.1903C24.7379 21.211 24.4371 22.2321 24.0108 23.2118C23.7136 23.8948 23.3777 24.5585 22.8558 25.1112C22.4175 25.5752 21.9106 25.964 21.396 26.3422C19.9819 27.3809 18.4877 28.2982 16.9403 29.1331C15.9471 29.669 14.9362 30.171 13.8747 30.5676C13.3431 30.7663 12.8047 30.95 12.2314 30.9958C12.0825 31.0078 11.9311 30.9907 11.7808 30.9871C11.7749 30.9735 11.769 30.9599 11.7631 30.9463C11.8004 30.8819 11.8324 30.8139 11.876 30.7539C12.2243 30.2716 12.5743 29.7903 12.9252 29.3099C13.4288 28.6204 13.9477 27.9411 14.4345 27.2404C14.9588 26.4861 15.4685 25.7212 15.9579 24.9447C16.5349 24.0293 17.0392 23.0753 17.4017 22.056C17.5526 21.6313 17.6424 21.1937 17.7048 20.7467C17.7634 20.3248 17.5781 20.0499 17.2514 19.8223C16.8143 19.5177 16.3387 19.2827 15.8486 19.0751C14.874 18.6621 13.8706 18.3361 12.8282 18.1267C12.2161 18.0035 11.6037 18.0162 10.989 18.0873C9.70794 18.2355 8.47236 18.5684 7.25774 18.98C5.16909 19.6878 3.17064 20.5941 1.22918 21.6233C1.18844 21.6449 1.14628 21.664 1.08339 21.6949C1.07138 21.5038 1.05372 21.3296 1.05042 21.1548C1.04006 20.6084 1.11896 20.069 1.19268 19.529C1.35048 18.3702 1.5601 17.2142 1.57046 16.043C1.57564 15.4481 1.48732 14.8501 1.41007 14.2574C1.29914 13.4054 1.14345 12.559 1.03958 11.7066C0.988475 11.2865 1.01014 10.8576 1.00002 10.4327C0.999545 10.4113 1.00967 10.3894 1.01815 10.354C1.11637 10.3984 1.20775 10.4382 1.29749 10.4811C2.62044 11.1125 3.97284 11.6767 5.35162 12.1808C6.31139 12.5316 7.28318 12.8458 8.27522 13.0965C9.40905 13.3829 10.5549 13.6018 11.7328 13.6084C12.3044 13.6117 12.8527 13.4763 13.3982 13.3308C14.3391 13.0799 15.2454 12.7365 16.1211 12.3194C16.5257 12.1265 16.9177 11.9066 17.2653 11.6198C17.494 11.4313 17.6016 11.2105 17.5691 10.9044C17.4935 10.1903 17.2413 9.53312 16.9365 8.89111C16.4191 7.80138 15.7469 6.80189 15.0422 5.82219C14.2317 4.69517 13.3485 3.6227 12.4707 2.54609C12.1089 2.10251 11.7596 1.64903 11.4056 1.19947C11.3752 1.16079 11.3529 1.11591 11.3152 1.05467Z" stroke="white" stroke-miterlimit="10"/>
</svg>
